<svg xmlns="http://www.w3.org/2000/svg" viewBox="0 0 525 530" width="525" height="530">

<g transform="translate(0.000000,529.920000) scale(0.024000,-0.024000)"
fill="#ffffff" stroke="none">
<path d="M12172 22060 c-7 -11 -20 -20 -30 -20 -9 0 -30 -9 -47 -20 -16 -11
-38 -20 -47 -20 -9 0 -23 -6 -30 -13 -7 -7 -47 -30 -88 -50 -41 -21 -82 -41
-90 -46 -8 -5 -26 -14 -40 -20 -14 -6 -32 -15 -40 -20 -8 -6 -53 -31 -100 -58
-47 -26 -87 -50 -90 -53 -3 -3 -27 -19 -55 -35 -27 -15 -63 -39 -78 -52 -16
-12 -33 -23 -38 -23 -9 0 -65 -36 -79 -50 -5 -5 -75 -53 -160 -110 -69 -46
-216 -157 -322 -244 -115 -94 -522 -501 -605 -606 -42 -52 -81 -99 -87 -105
-13 -11 -74 -100 -122 -176 -17 -27 -38 -57 -46 -66 -16 -18 -67 -105 -90
-153 -6 -14 -18 -32 -25 -41 -22 -26 -183 -351 -183 -368 0 -9 -9 -29 -20 -46
-11 -16 -20 -39 -20 -50 0 -11 -7 -30 -15 -41 -8 -12 -19 -39 -24 -60 -5 -22
-16 -59 -24 -84 -39 -121 -57 -187 -57 -206 0 -12 -7 -41 -15 -64 -8 -24 -18
-68 -21 -99 -3 -31 -12 -81 -20 -111 -14 -57 -26 -164 -45 -412 -9 -112 -9
-182 0 -300 6 -84 16 -211 21 -282 6 -71 17 -155 25 -186 8 -32 15 -75 15 -96
0 -20 9 -85 19 -143 30 -168 54 -443 48 -571 -6 -169 -25 -343 -47 -441 -11
-47 -20 -99 -20 -115 0 -16 -9 -53 -20 -82 -11 -29 -20 -65 -20 -80 0 -15 -9
-45 -20 -67 -11 -22 -20 -51 -20 -65 0 -14 -6 -34 -14 -45 -7 -11 -19 -37 -26
-58 -7 -22 -18 -51 -26 -65 -8 -15 -14 -33 -14 -40 0 -8 -9 -25 -20 -39 -11
-14 -20 -33 -21 -42 0 -9 -14 -38 -30 -66 -16 -27 -35 -61 -41 -75 -20 -40
-137 -209 -193 -280 -66 -83 -205 -225 -270 -277 -27 -21 -77 -56 -109 -78
-66 -43 -262 -135 -288 -135 -9 0 -19 -4 -23 -9 -3 -5 -31 -15 -63 -21 -31 -7
-68 -18 -82 -25 -14 -6 -87 -17 -162 -24 -107 -10 -164 -10 -260 0 -74 7 -141
19 -167 30 -24 11 -50 19 -57 19 -12 0 -88 31 -124 51 -155 85 -225 144 -366
309 -40 46 -48 58 -84 120 -11 19 -34 58 -50 85 -16 28 -29 59 -29 70 -1 11
-8 31 -17 43 -8 12 -20 50 -25 84 -6 35 -17 82 -25 106 -10 32 -14 95 -14 242
0 120 4 210 11 227 6 15 17 62 24 103 7 41 20 95 28 120 9 25 25 77 37 115 12
39 31 88 41 111 10 22 19 47 19 55 0 8 9 28 20 44 11 17 20 37 20 45 0 19 114
256 180 375 123 221 124 241 12 196 -26 -10 -74 -28 -107 -41 -63 -24 -116
-47 -200 -86 -28 -13 -55 -24 -61 -24 -7 0 -17 -7 -24 -15 -7 -8 -19 -15 -27
-15 -18 0 -192 -86 -214 -106 -8 -8 -23 -14 -32 -14 -8 0 -22 -6 -29 -13 -7
-7 -47 -30 -88 -51 -41 -20 -84 -43 -95 -49 -42 -26 -191 -120 -214 -136 -13
-9 -31 -20 -40 -26 -69 -44 -212 -144 -239 -169 -19 -17 -41 -35 -50 -40 -18
-10 -114 -86 -122 -97 -3 -4 -35 -31 -71 -61 -204 -164 -441 -395 -567 -553
-53 -66 -104 -128 -114 -138 -10 -10 -37 -43 -60 -75 -23 -31 -67 -89 -98
-129 -94 -122 -151 -205 -206 -299 -15 -27 -31 -51 -35 -54 -3 -3 -14 -18 -23
-35 -9 -16 -25 -43 -36 -60 -11 -16 -25 -41 -32 -55 -6 -14 -18 -33 -27 -43
-20 -24 -30 -42 -119 -222 -101 -202 -142 -293 -142 -315 0 -10 -7 -23 -15
-30 -8 -7 -15 -18 -15 -24 0 -6 -20 -56 -45 -110 -25 -55 -45 -105 -45 -112 0
-8 -9 -28 -20 -46 -11 -18 -20 -39 -20 -46 0 -8 -6 -28 -14 -45 -19 -43 -66
-198 -66 -217 0 -9 -9 -33 -20 -55 -11 -22 -20 -51 -20 -65 0 -14 -7 -37 -15
-53 -8 -15 -19 -52 -24 -82 -6 -30 -15 -63 -20 -73 -5 -10 -13 -43 -16 -73 -4
-30 -13 -74 -21 -99 -7 -25 -18 -81 -23 -125 -6 -45 -14 -93 -20 -108 -6 -14
-15 -73 -21 -130 -6 -57 -15 -119 -20 -138 -6 -19 -15 -108 -20 -199 -6 -91
-15 -217 -20 -280 -5 -63 -10 -219 -10 -347 0 -127 -4 -242 -9 -255 -5 -13
-26 -41 -46 -63 -21 -22 -55 -65 -78 -95 -22 -30 -53 -69 -68 -85 -16 -17 -63
-76 -106 -131 -111 -143 -169 -216 -243 -304 -60 -71 -105 -130 -200 -260 -19
-26 -57 -76 -83 -111 -45 -60 -78 -104 -232 -308 -33 -44 -70 -95 -83 -113
-47 -68 -135 -190 -218 -303 -24 -33 -44 -64 -44 -68 0 -4 -24 -38 -53 -75
-29 -37 -62 -80 -73 -96 -10 -16 -35 -52 -54 -81 -19 -29 -42 -63 -51 -76 -9
-13 -38 -58 -64 -99 -26 -41 -70 -108 -96 -148 -27 -41 -49 -77 -49 -81 0 -4
-9 -16 -20 -26 -11 -10 -20 -22 -20 -26 0 -5 -18 -35 -40 -66 -22 -32 -40 -62
-40 -67 0 -6 -9 -19 -19 -30 -18 -20 -67 -102 -93 -156 -6 -14 -18 -33 -27
-43 -15 -19 -32 -45 -56 -92 -9 -16 -29 -50 -45 -75 -16 -25 -43 -70 -61 -100
-18 -30 -36 -57 -39 -60 -4 -3 -13 -17 -21 -32 -8 -14 -32 -59 -53 -100 -36
-67 -154 -295 -306 -593 -34 -66 -72 -140 -85 -165 -12 -25 -33 -67 -45 -95
-12 -27 -69 -145 -126 -262 -57 -117 -104 -218 -104 -225 0 -8 -6 -22 -14 -33
-7 -11 -17 -31 -20 -45 -4 -14 -16 -43 -26 -65 -10 -22 -28 -61 -39 -86 -12
-25 -21 -52 -21 -60 0 -8 -9 -32 -19 -54 -43 -89 -61 -133 -61 -144 0 -7 -9
-29 -20 -49 -10 -20 -29 -64 -41 -97 -11 -33 -27 -73 -35 -90 -8 -16 -18 -43
-24 -60 -5 -16 -21 -61 -36 -100 -14 -38 -32 -90 -39 -115 -7 -25 -20 -58 -29
-75 -9 -16 -16 -42 -16 -57 0 -15 -4 -29 -10 -33 -11 -7 -70 -189 -70 -216 0
-10 -9 -24 -20 -31 -11 -7 -20 -23 -20 -35 0 -16 8 -23 30 -28 22 -5 40 -1 66
14 19 12 43 21 52 21 9 0 30 7 47 16 36 18 140 60 175 69 14 3 39 12 55 20 17
7 49 18 73 24 23 6 61 16 85 22 99 26 196 49 252 58 33 6 83 15 110 21 245 45
595 54 880 20 94 -11 195 -27 225 -35 30 -8 68 -15 85 -15 16 0 50 -7 75 -15
25 -8 70 -21 100 -29 128 -34 147 -39 185 -56 22 -10 55 -21 72 -25 18 -4 35
-11 38 -16 4 -5 14 -9 23 -9 9 0 40 -11 67 -25 28 -13 55 -25 60 -25 6 0 28
-9 50 -20 22 -11 46 -19 53 -20 8 0 25 -9 39 -20 14 -11 31 -20 38 -20 6 0 38
-13 71 -29 32 -17 79 -39 104 -50 25 -11 77 -38 115 -60 39 -23 84 -49 101
-58 89 -50 113 -66 200 -124 40 -28 221 -161 240 -177 5 -5 30 -22 55 -38 24
-16 89 -64 144 -107 55 -43 107 -84 115 -90 48 -38 240 -196 270 -223 104 -93
140 -124 190 -164 30 -24 60 -48 65 -54 6 -6 42 -35 80 -64 39 -30 88 -69 110
-87 22 -19 99 -79 170 -134 72 -55 148 -115 170 -134 22 -19 108 -84 190 -145
83 -61 155 -115 160 -119 20 -16 191 -132 281 -190 27 -17 63 -41 79 -53 17
-12 75 -50 130 -86 111 -71 114 -73 168 -109 21 -14 41 -25 44 -25 4 0 15 -7
25 -17 10 -9 27 -21 37 -27 103 -58 157 -90 161 -96 9 -11 210 -121 308 -168
15 -7 34 -17 42 -23 8 -5 26 -14 40 -19 14 -6 32 -15 40 -20 8 -6 26 -15 40
-21 14 -6 32 -15 40 -20 8 -5 26 -14 40 -19 14 -6 32 -15 40 -20 8 -6 26 -15
40 -21 14 -6 32 -15 40 -20 8 -5 26 -14 40 -19 14 -6 32 -15 40 -20 8 -6 22
-13 30 -16 8 -3 56 -25 105 -49 221 -105 265 -125 275 -125 6 0 28 -9 48 -19
20 -11 57 -28 82 -39 25 -11 66 -30 91 -41 25 -12 54 -21 63 -21 9 0 33 -9 53
-20 21 -11 50 -20 64 -20 15 0 32 -6 38 -14 7 -8 27 -17 46 -20 19 -4 54 -16
77 -26 24 -11 57 -20 74 -20 16 0 34 -4 40 -10 13 -13 179 -70 204 -70 12 0
31 -7 44 -15 12 -8 42 -19 67 -24 24 -5 64 -16 89 -25 42 -14 120 -36 230 -66
25 -6 68 -16 95 -22 28 -6 66 -16 85 -24 19 -8 63 -18 97 -23 34 -5 71 -14 81
-20 11 -6 46 -13 78 -16 33 -4 77 -13 99 -21 22 -7 74 -18 115 -23 41 -5 100
-17 130 -25 30 -9 73 -16 95 -16 23 0 64 -7 92 -15 27 -8 90 -19 139 -24 49
-5 100 -14 114 -19 14 -5 70 -13 125 -17 55 -4 134 -13 175 -21 41 -8 125 -17
185 -20 61 -3 175 -13 255 -22 120 -14 241 -17 690 -17 378 0 576 4 645 13 55
6 173 16 261 22 89 5 192 16 230 24 38 8 113 17 166 20 54 4 110 11 125 17 16
6 62 15 103 20 72 8 124 18 270 54 36 9 98 20 138 26 40 5 89 16 108 24 20 8
51 15 69 15 18 0 61 9 95 20 34 11 73 20 87 20 13 0 39 6 57 14 19 8 60 20 93
26 32 7 63 16 70 21 6 6 39 14 73 20 35 5 75 16 91 24 15 8 41 15 56 15 16 0
46 9 68 20 22 11 47 20 57 20 24 0 190 58 202 70 6 6 23 10 38 10 16 0 45 7
65 15 19 8 59 21 87 29 78 22 279 95 290 106 6 6 18 10 28 10 16 0 52 14 153
60 22 11 69 31 105 45 36 15 85 36 110 47 25 11 59 26 75 33 69 30 166 79 170
86 3 4 20 10 39 13 19 4 36 10 38 14 4 10 107 62 122 62 7 0 23 9 36 20 13 11
27 20 32 20 11 0 97 37 118 50 8 6 34 19 56 29 23 11 45 24 48 30 4 6 16 11
26 11 10 0 25 6 32 13 7 7 53 35 102 61 49 26 100 56 114 67 14 10 30 19 37
19 6 0 20 9 30 20 10 11 22 20 27 20 5 0 21 8 36 18 15 11 45 30 67 44 36 23
154 101 301 198 82 54 304 205 356 242 170 121 450 346 503 404 6 6 56 47 111
92 56 45 108 87 115 95 8 7 59 53 114 102 192 171 680 654 757 750 22 28 71
84 109 125 37 41 91 104 120 140 28 36 84 101 123 145 81 90 235 278 262 321
18 28 70 96 184 244 70 90 132 174 167 225 15 22 51 69 79 105 28 36 76 103
108 150 31 47 88 130 126 185 39 55 70 104 70 108 0 5 9 21 21 35 11 15 49 72
85 127 35 55 67 105 73 111 5 6 16 24 25 40 9 16 25 43 36 59 11 17 27 44 35
62 8 17 20 35 25 38 6 4 16 17 21 28 6 12 21 40 34 62 14 22 32 56 41 75 9 19
19 37 23 40 4 3 28 43 54 90 27 47 52 92 57 100 5 8 26 49 46 90 21 41 40 77
44 80 4 3 11 16 15 30 4 14 16 36 26 49 11 13 19 32 19 41 0 10 7 23 15 30 8
7 15 17 15 23 0 9 45 105 70 147 4 8 20 42 35 75 15 33 31 67 36 75 5 8 14 26
20 40 6 14 26 57 44 95 65 137 85 184 85 195 0 7 6 24 14 38 26 48 66 141 66
152 0 7 7 24 15 38 17 31 41 95 60 163 7 26 20 60 29 77 9 17 16 41 16 54 0
13 6 32 14 43 7 11 18 40 24 65 6 25 17 65 25 90 28 87 70 239 91 331 8 30 18
64 24 75 6 12 14 45 17 75 4 30 11 68 17 84 11 32 43 181 59 278 26 159 30
184 59 402 19 137 29 262 40 485 8 171 7 275 -5 505 -8 160 -22 319 -30 355
-8 36 -15 85 -15 110 0 25 -7 77 -16 115 -8 39 -19 99 -25 135 -5 36 -16 82
-24 103 -8 20 -15 52 -15 70 0 17 -8 61 -19 97 -11 36 -24 85 -31 110 -24 97
-41 156 -51 175 -5 11 -16 43 -24 70 -20 73 -43 136 -60 167 -8 14 -15 34 -15
43 0 10 -8 36 -19 59 -10 23 -24 52 -30 66 -6 14 -15 32 -20 40 -5 8 -33 64
-63 123 -59 120 -79 158 -108 202 -11 17 -27 44 -34 61 -8 17 -22 36 -30 44
-9 7 -16 16 -16 21 0 10 -108 181 -140 222 -24 31 -50 36 -50 10 0 -10 7 -58
15 -108 17 -107 21 -527 5 -620 -6 -33 -17 -118 -24 -190 -16 -144 -38 -266
-67 -365 -11 -36 -19 -73 -19 -83 0 -10 -9 -35 -20 -57 -11 -22 -20 -45 -20
-52 0 -7 -6 -25 -14 -40 -8 -14 -19 -42 -26 -62 -6 -20 -15 -36 -20 -36 -5 0
-11 -14 -15 -30 -4 -17 -12 -36 -19 -43 -6 -6 -25 -35 -41 -64 -54 -92 -208
-252 -289 -300 -112 -65 -269 -113 -371 -113 -70 0 -230 35 -256 57 -8 6 -25
14 -38 18 -31 9 -134 89 -182 140 -43 47 -119 149 -137 185 -6 14 -16 32 -21
40 -5 8 -14 26 -20 40 -6 14 -15 32 -20 40 -10 18 -42 104 -66 180 -18 56 -37
162 -56 305 -11 84 -5 273 12 360 31 158 27 820 -5 950 -9 33 -15 78 -16 101
0 22 -9 76 -20 119 -11 43 -20 90 -20 104 0 28 -30 159 -61 266 -11 39 -30
102 -41 140 -11 39 -29 93 -39 120 -10 28 -19 57 -19 65 0 9 -9 32 -20 53 -11
20 -20 42 -20 49 0 13 -42 124 -71 184 -10 22 -19 45 -19 51 0 6 -7 16 -15 23
-8 7 -15 23 -15 35 0 12 -9 34 -20 48 -11 14 -20 32 -20 40 0 8 -9 25 -19 39
-11 13 -23 37 -26 51 -4 15 -10 27 -15 27 -4 0 -14 17 -23 38 -9 20 -22 46
-29 56 -20 30 -90 139 -120 187 -15 24 -46 71 -68 104 -22 33 -52 79 -67 103
-33 52 -283 382 -353 467 -125 151 -515 541 -652 652 -26 21 -103 84 -171 140
-113 91 -156 123 -322 238 -27 19 -54 38 -60 43 -11 8 -132 87 -180 118 -58
36 -70 44 -102 59 -17 8 -35 20 -38 25 -4 6 -17 16 -28 21 -12 6 -40 21 -62
34 -22 14 -51 30 -65 37 -14 6 -33 18 -42 26 -51 42 -501 262 -536 262 -11 0
-25 7 -32 15 -7 8 -19 15 -26 15 -13 0 -132 44 -166 61 -31 16 -123 49 -135
49 -7 0 -17 -9 -23 -20 -9 -17 -7 -24 13 -43 32 -31 130 -153 217 -272 40 -55
86 -117 102 -137 15 -20 28 -40 29 -45 0 -4 16 -28 34 -53 19 -25 48 -68 65
-96 16 -29 37 -57 45 -64 8 -7 15 -16 15 -21 0 -5 32 -64 71 -132 90 -156 82
-142 114 -212 15 -33 33 -72 41 -87 8 -14 14 -34 14 -43 0 -10 9 -34 19 -54
22 -42 49 -118 61 -178 5 -24 16 -53 24 -65 7 -13 17 -47 20 -77 4 -30 13 -66
20 -80 7 -14 16 -60 19 -101 4 -41 13 -106 22 -145 17 -81 19 -250 4 -345 -5
-36 -16 -108 -24 -160 -8 -52 -21 -113 -29 -135 -8 -22 -15 -49 -16 -60 0 -21
-8 -40 -85 -195 -69 -141 -130 -232 -233 -354 -78 -91 -260 -246 -290 -246 -5
0 -17 -9 -27 -20 -10 -11 -25 -20 -34 -20 -9 0 -28 -8 -41 -17 -29 -21 -62
-34 -180 -73 -169 -55 -218 -64 -380 -68 -119 -2 -164 0 -195 12 -22 8 -58 18
-80 22 -36 6 -95 30 -135 55 -8 5 -25 13 -38 19 -46 20 -167 127 -227 201 -59
73 -107 160 -154 278 -11 29 -21 61 -21 71 0 9 -9 50 -20 91 -17 66 -20 108
-20 389 0 274 -3 327 -20 410 -11 52 -20 106 -20 120 0 25 -38 157 -67 235 -8
22 -23 57 -34 77 -10 20 -19 44 -19 52 0 16 -126 267 -139 276 -3 3 -22 30
-41 60 -43 70 -138 197 -204 275 -28 33 -137 147 -242 255 -105 107 -217 224
-249 260 -32 36 -89 97 -126 135 -37 39 -82 88 -99 110 -17 22 -35 42 -38 45
-4 3 -32 34 -62 70 -30 35 -62 72 -71 81 -27 27 -161 209 -210 284 -68 104
-140 221 -172 279 -16 28 -37 60 -48 72 -10 11 -19 27 -19 36 0 8 -9 27 -20
40 -11 14 -24 36 -30 49 -5 13 -14 31 -20 39 -5 8 -15 26 -20 40 -6 14 -24 49
-40 79 -16 29 -32 66 -35 82 -4 15 -13 33 -21 40 -8 6 -14 20 -14 31 0 10 -8
36 -19 56 -21 42 -48 117 -62 177 -5 22 -16 54 -24 72 -8 17 -15 40 -15 52 0
11 -7 42 -17 68 -9 26 -22 82 -29 123 -7 41 -17 95 -23 120 -5 25 -14 86 -20
135 -6 50 -16 124 -22 165 -16 106 -5 524 15 610 9 36 16 83 16 106 0 22 9 67
20 99 11 32 20 68 20 79 0 22 15 78 82 291 60 190 78 240 132 355 18 41 46
119 46 131 0 5 -17 9 -38 9 -26 0 -41 -6 -50 -20z m-342 -8880 c96 -11 216
-20 267 -20 50 0 122 -6 160 -14 37 -8 109 -17 158 -21 50 -3 119 -13 155 -21
36 -7 103 -18 150 -23 96 -10 230 -35 307 -57 28 -8 80 -19 115 -23 35 -5 81
-16 103 -25 22 -8 55 -15 73 -16 18 0 46 -7 61 -14 15 -8 52 -18 82 -22 30 -4
63 -13 74 -20 11 -7 38 -15 60 -19 22 -3 56 -12 75 -20 19 -7 80 -27 135 -44
55 -17 138 -44 185 -61 47 -17 99 -35 115 -40 52 -16 129 -45 162 -63 18 -9
43 -17 56 -17 12 0 27 -4 33 -10 5 -5 34 -18 64 -29 122 -42 178 -65 252 -102
20 -11 44 -19 53 -19 9 0 33 -9 53 -20 20 -10 44 -21 52 -24 8 -3 22 -10 30
-15 14 -9 74 -37 130 -61 14 -5 61 -30 105 -55 44 -24 91 -49 105 -55 14 -5
32 -14 40 -20 8 -5 33 -18 55 -29 22 -11 48 -25 58 -31 9 -5 25 -14 35 -19 41
-23 198 -113 212 -122 8 -5 29 -16 45 -25 17 -8 62 -34 100 -59 39 -24 88 -53
110 -64 22 -12 54 -30 70 -41 17 -11 46 -28 65 -39 33 -19 194 -122 215 -138
6 -4 30 -21 55 -38 37 -25 191 -136 225 -163 6 -4 38 -27 73 -52 229 -164 501
-373 616 -475 34 -30 94 -80 134 -112 260 -212 337 -275 412 -343 47 -42 101
-89 120 -104 19 -16 77 -68 130 -116 52 -49 163 -148 245 -221 83 -73 152
-135 155 -138 3 -3 32 -30 65 -60 33 -30 94 -86 135 -126 41 -39 91 -83 110
-99 60 -48 348 -323 508 -484 122 -123 152 -159 151 -180 0 -15 -27 -76 -60
-137 -32 -60 -66 -126 -75 -145 -9 -19 -20 -37 -24 -40 -4 -3 -33 -51 -66
-108 -32 -57 -68 -117 -78 -135 -10 -18 -29 -50 -41 -72 -50 -92 -89 -160 -95
-165 -4 -3 -13 -16 -20 -30 -7 -14 -54 -88 -105 -165 -50 -77 -102 -158 -115
-180 -13 -22 -32 -51 -43 -65 -10 -14 -47 -70 -83 -125 -35 -55 -67 -104 -71
-110 -4 -5 -43 -62 -86 -125 -43 -63 -107 -155 -142 -205 -35 -49 -77 -108
-92 -131 -16 -23 -45 -61 -65 -85 -20 -24 -94 -116 -163 -203 -70 -88 -157
-194 -194 -235 -36 -42 -100 -116 -141 -166 -104 -126 -649 -667 -770 -765
-55 -45 -108 -89 -118 -99 -17 -17 -136 -113 -302 -245 -111 -87 -109 -85
-225 -169 -102 -74 -124 -89 -185 -131 -19 -14 -60 -43 -90 -65 -30 -22 -91
-61 -135 -87 -44 -25 -87 -52 -95 -59 -13 -11 -57 -35 -190 -107 -19 -10 -48
-28 -65 -38 -16 -11 -48 -29 -70 -40 -22 -12 -58 -32 -80 -45 -37 -23 -422
-216 -526 -264 -25 -12 -50 -21 -56 -21 -6 0 -16 -6 -22 -14 -7 -8 -27 -17
-45 -20 -19 -4 -39 -13 -46 -21 -7 -8 -21 -15 -31 -15 -10 0 -38 -9 -61 -19
-75 -33 -142 -60 -180 -71 -21 -6 -40 -16 -43 -21 -4 -5 -15 -9 -27 -9 -11 0
-34 -7 -51 -14 -36 -17 -134 -52 -187 -67 -19 -5 -51 -16 -70 -23 -19 -7 -69
-23 -110 -36 -41 -12 -98 -31 -125 -41 -28 -11 -58 -19 -68 -19 -10 0 -43 -9
-74 -20 -32 -11 -69 -20 -83 -20 -14 0 -41 -8 -60 -18 -19 -11 -62 -22 -95
-25 -34 -3 -76 -13 -95 -20 -19 -8 -62 -18 -95 -22 -33 -4 -67 -11 -75 -15 -9
-5 -54 -14 -100 -20 -47 -6 -105 -17 -130 -25 -25 -7 -78 -16 -118 -20 -40 -3
-98 -13 -128 -21 -30 -8 -81 -14 -112 -14 -31 0 -100 -8 -152 -17 -79 -13
-195 -17 -695 -20 -512 -4 -619 -2 -728 12 -71 9 -188 20 -260 25 -73 5 -147
13 -165 19 -17 5 -69 13 -115 16 -45 4 -118 16 -162 26 -44 10 -96 19 -116 19
-20 0 -55 6 -77 14 -22 8 -66 17 -98 21 -33 4 -85 16 -116 26 -32 11 -70 19
-84 19 -15 0 -57 9 -93 19 -84 25 -143 40 -206 53 -27 6 -72 19 -100 28 -151
53 -306 100 -327 100 -13 0 -29 5 -36 12 -12 12 -113 50 -177 68 -16 4 -43 15
-60 24 -16 9 -40 16 -52 16 -12 0 -24 4 -28 9 -3 5 -28 17 -56 26 -28 10 -63
24 -78 31 -14 8 -32 14 -39 14 -7 0 -30 9 -50 19 -48 26 -137 61 -153 61 -7 0
-20 6 -28 13 -9 8 -38 22 -66 32 -74 27 -642 317 -655 335 -7 9 -167 100 -176
100 -4 0 -16 7 -26 17 -10 9 -27 21 -37 27 -104 59 -157 90 -161 96 -3 3 -30
21 -60 39 -99 58 -124 74 -169 108 -24 18 -48 33 -53 33 -5 0 -34 19 -63 42
-30 24 -138 104 -240 178 -198 144 -515 393 -630 495 -38 35 -98 84 -132 111
-34 27 -97 77 -140 111 -114 91 -240 188 -338 258 -31 22 -80 59 -109 82 -29
22 -70 53 -92 68 -21 14 -53 38 -69 53 -17 15 -62 51 -100 80 -39 29 -83 62
-99 75 -16 12 -40 28 -55 36 -14 8 -44 29 -66 46 -22 18 -53 40 -70 49 -16 10
-57 35 -90 56 -33 22 -87 55 -120 75 -33 20 -80 49 -105 65 -25 16 -67 41 -95
55 -27 15 -57 33 -65 40 -8 8 -26 19 -40 25 -14 6 -43 22 -65 35 -131 77 -631
325 -657 325 -7 0 -26 9 -43 20 -16 11 -37 20 -46 20 -9 0 -22 7 -29 15 -7 8
-19 15 -28 15 -13 0 -47 14 -142 60 -21 10 -25 48 -7 68 8 9 18 28 21 42 4 14
46 103 94 198 119 236 124 245 139 260 7 7 13 17 13 22 0 5 26 55 58 112 32
57 62 110 65 118 12 24 164 283 197 335 8 13 33 54 54 92 22 37 42 70 46 73 3
3 21 30 39 60 17 30 46 75 64 100 18 26 37 53 42 62 14 22 157 225 175 248 16
21 50 67 161 220 38 52 72 100 77 105 4 6 36 48 72 94 35 47 71 92 79 100 9 9
50 57 91 106 41 50 96 113 121 140 101 109 122 133 177 202 60 76 461 478 667
669 155 144 311 281 366 321 24 18 62 48 84 68 22 20 51 43 65 53 14 9 87 65
162 125 125 99 440 317 457 317 5 0 16 9 26 20 10 11 22 20 26 20 5 0 25 11
46 25 21 14 45 30 53 35 8 5 46 30 83 55 38 25 71 45 74 45 3 0 29 15 57 34
28 18 78 48 111 65 33 17 67 36 75 41 41 28 489 251 570 284 36 15 76 33 90
40 14 8 39 17 57 20 17 4 37 14 44 22 6 8 18 14 26 14 16 0 90 31 145 60 20
11 44 20 54 20 9 0 57 18 106 40 50 22 97 40 106 40 8 0 33 8 56 19 43 19 111
43 186 65 51 15 94 31 162 58 26 10 57 18 70 18 13 1 41 9 63 20 22 11 50 19
63 20 12 0 48 9 79 20 32 11 68 20 80 20 13 0 49 9 80 20 32 11 68 20 80 20
13 0 49 9 80 19 32 11 82 22 112 26 30 3 67 13 82 21 15 7 45 14 66 14 21 0
67 7 103 15 36 9 108 20 160 25 52 6 115 17 140 24 25 8 88 17 140 21 52 3
114 10 137 16 23 5 136 16 250 25 115 9 237 20 273 24 36 4 232 8 435 8 310 2
398 -1 545 -18z"/>
<path d="M12530 10793 c0 -9 49 -66 108 -127 127 -130 255 -287 333 -406 58
-88 189 -345 189 -371 0 -7 7 -27 16 -44 9 -16 22 -52 29 -80 7 -27 18 -63 23
-80 28 -80 52 -225 63 -370 9 -124 9 -195 0 -315 -7 -85 -19 -182 -27 -215 -8
-33 -18 -82 -23 -110 -11 -59 -35 -133 -62 -193 -10 -23 -19 -49 -19 -57 0
-22 -153 -314 -204 -390 -120 -176 -363 -421 -543 -548 -73 -51 -272 -153
-368 -188 -44 -16 -93 -36 -110 -43 -42 -19 -145 -45 -247 -61 -49 -8 -107
-19 -130 -25 -24 -5 -131 -10 -238 -10 -141 0 -210 4 -250 15 -30 8 -84 18
-120 21 -36 4 -76 12 -90 19 -14 7 -52 18 -85 25 -33 7 -72 19 -87 26 -15 8
-36 14 -48 14 -12 0 -38 9 -58 20 -20 10 -80 40 -132 66 -132 65 -167 86 -280
169 -80 59 -114 88 -225 200 -113 112 -200 207 -223 245 -9 14 -30 43 -47 65
-18 22 -47 66 -66 98 -19 33 -44 75 -56 95 -12 21 -25 44 -28 52 -12 29 -25
55 -34 70 -10 18 -23 53 -63 175 -16 50 -37 110 -45 135 -8 25 -19 74 -23 110
-5 36 -15 103 -24 149 -11 59 -16 143 -16 288 0 161 4 230 20 322 11 64 25
134 31 156 6 22 17 65 24 95 23 93 45 153 99 272 14 31 26 63 26 70 0 7 9 27
20 43 11 17 20 36 20 44 0 8 7 23 17 33 9 10 21 27 27 37 58 102 88 151 96
156 6 3 10 20 10 37 0 27 -3 30 -22 23 -13 -3 -61 -15 -108 -25 -47 -11 -105
-25 -130 -31 -25 -6 -79 -19 -120 -29 -41 -10 -102 -26 -135 -35 -33 -9 -71
-19 -85 -21 -35 -8 -188 -53 -230 -69 -19 -7 -75 -25 -125 -40 -49 -15 -106
-33 -125 -40 -46 -16 -242 -82 -300 -99 -51 -16 -130 -45 -210 -76 -30 -12
-102 -39 -160 -59 -58 -20 -114 -42 -125 -48 -11 -6 -36 -13 -56 -17 -21 -4
-42 -13 -48 -20 -7 -8 -31 -17 -55 -20 -24 -4 -52 -13 -62 -21 -11 -8 -28 -15
-39 -15 -11 0 -38 -9 -60 -20 -22 -11 -44 -19 -48 -20 -5 0 -22 -13 -38 -29
-22 -23 -29 -39 -29 -68 0 -22 -7 -89 -16 -149 -21 -145 -26 -760 -6 -844 7
-30 17 -99 22 -152 5 -53 16 -125 24 -160 8 -35 19 -90 25 -123 13 -72 26
-128 52 -216 10 -36 19 -74 19 -85 1 -10 9 -37 20 -59 11 -22 19 -51 20 -65 0
-14 9 -42 20 -63 11 -20 20 -44 20 -53 0 -9 9 -38 21 -63 12 -25 29 -64 39
-86 47 -108 62 -140 125 -265 59 -120 162 -304 194 -349 6 -9 26 -39 44 -68
63 -102 113 -170 204 -283 161 -200 198 -242 319 -365 132 -134 239 -226 457
-396 49 -37 243 -166 309 -204 35 -20 81 -47 103 -60 40 -24 286 -147 357
-179 20 -9 43 -16 51 -16 8 0 20 -6 26 -14 7 -8 27 -18 44 -22 18 -4 48 -15
67 -25 19 -11 44 -19 55 -19 11 0 29 -6 40 -14 11 -7 40 -18 65 -24 45 -11
118 -33 175 -54 17 -6 53 -15 80 -20 28 -5 71 -16 98 -24 26 -8 82 -19 125
-24 42 -5 92 -14 111 -19 19 -6 100 -15 180 -21 80 -6 187 -15 236 -20 131
-14 324 -12 455 4 63 8 156 17 205 21 50 3 113 12 140 20 28 7 81 16 119 19
38 4 81 13 97 21 15 8 46 15 69 15 22 0 56 6 74 14 19 8 60 20 93 26 32 7 63
16 69 21 6 5 35 14 65 20 30 6 64 17 76 25 12 8 30 14 40 14 10 0 58 18 108
40 49 22 95 40 103 40 7 0 37 11 65 24 29 13 59 26 67 30 8 3 22 10 30 15 8 5
44 23 80 40 82 40 183 96 234 130 21 14 46 31 55 36 9 6 36 24 60 40 24 17 51
35 60 40 30 19 293 217 310 234 9 9 44 38 76 66 83 68 387 370 429 425 19 25
53 65 75 90 22 25 58 70 78 100 21 30 40 57 43 60 6 6 66 94 122 179 39 60
103 164 129 212 9 16 22 35 28 43 24 29 221 432 221 452 0 12 6 27 14 33 8 7
18 27 21 44 4 18 13 46 21 62 38 84 144 474 144 529 0 14 9 59 19 99 11 39 25
108 31 152 6 44 15 104 20 134 5 29 12 162 15 295 8 283 -7 674 -30 756 -8 30
-15 72 -15 93 0 40 -41 240 -65 317 -7 25 -16 66 -20 92 -3 26 -10 50 -15 53
-5 3 -13 28 -19 56 -14 62 -49 96 -111 105 -25 3 -58 12 -75 20 -28 12 -103
31 -220 55 -27 6 -73 17 -102 25 -28 8 -80 19 -115 24 -35 5 -94 16 -133 25
-191 44 -245 55 -277 55 -20 0 -52 7 -72 15 -20 8 -78 18 -128 22 -51 3 -111
12 -132 20 -21 7 -78 16 -125 19 -47 3 -113 12 -146 19 -33 8 -134 19 -225 25
-91 5 -192 14 -225 20 -33 5 -127 12 -210 15 -82 3 -183 8 -222 10 -63 4 -73
2 -73 -12z"/>
<path d="M4890 2342 c0 -23 147 -187 356 -397 218 -220 356 -346 529 -484 165
-131 149 -118 205 -156 25 -16 77 -55 117 -85 39 -30 86 -65 105 -78 90 -62
202 -134 221 -143 12 -5 42 -23 67 -39 64 -41 192 -113 285 -160 22 -11 82
-43 134 -70 51 -28 98 -50 103 -50 5 0 21 -9 35 -20 14 -11 36 -20 48 -20 12
0 28 -7 35 -15 7 -8 17 -15 24 -15 6 0 33 -11 61 -24 27 -13 77 -34 110 -46
33 -12 69 -27 79 -32 19 -10 141 -54 356 -129 116 -40 209 -69 310 -94 30 -8
75 -20 100 -28 68 -22 129 -37 190 -49 30 -5 83 -18 118 -29 34 -10 82 -19
106 -19 24 0 60 -7 80 -15 21 -9 74 -18 119 -21 45 -3 103 -12 128 -20 25 -8
104 -19 175 -24 71 -5 156 -15 189 -22 89 -19 1176 -18 1300 1 119 18 145 24
148 36 1 6 -18 15 -43 22 -52 14 -125 38 -192 65 -26 10 -54 18 -62 18 -9 0
-33 9 -53 20 -21 11 -50 20 -65 20 -15 0 -29 4 -33 10 -3 5 -34 18 -68 29 -72
23 -144 48 -172 60 -22 10 -96 35 -165 56 -25 8 -103 35 -175 61 -71 25 -148
51 -170 58 -22 7 -57 20 -77 29 -21 10 -44 17 -53 17 -9 0 -29 7 -44 15 -32
16 -95 40 -161 60 -71 22 -162 55 -197 71 -17 7 -39 14 -48 14 -9 0 -26 5 -38
12 -30 17 -145 57 -187 67 -19 4 -44 13 -55 19 -11 7 -63 26 -115 42 -52 17
-104 34 -115 39 -23 10 -136 49 -180 61 -48 14 -126 40 -180 60 -27 10 -59 20
-70 23 -11 3 -51 18 -90 32 -38 15 -90 33 -115 40 -25 7 -58 20 -75 29 -16 9
-38 16 -48 16 -11 0 -31 6 -45 14 -15 8 -68 28 -118 45 -50 17 -104 37 -120
46 -16 8 -36 15 -44 15 -9 0 -33 9 -55 20 -22 11 -47 20 -57 20 -16 0 -39 9
-154 61 -23 11 -48 19 -57 19 -8 0 -28 7 -44 15 -54 28 -146 65 -160 65 -8 0
-27 6 -41 14 -50 27 -144 66 -160 66 -8 0 -23 6 -31 13 -9 7 -50 26 -91 41
-41 15 -93 36 -115 46 -22 9 -56 24 -75 33 -19 8 -61 27 -92 41 -31 14 -62 26
-68 26 -9 0 -58 23 -110 52 -8 4 -26 13 -40 19 -70 31 -137 63 -515 250 -225
112 -440 220 -477 241 -74 42 -118 49 -118 20z"/>
</g>
</svg>